<svg width="43" height="43" viewBox="0 0 43 43" fill="none" xmlns="http://www.w3.org/2000/svg">
<g id="Frame">
<path id="Vector" d="M21.5 39.4167C31.3951 39.4167 39.4167 31.395 39.4167 21.5C39.4167 11.6049 31.3951 3.58334 21.5 3.58334C11.6049 3.58334 3.58337 11.6049 3.58337 21.5C3.58337 31.395 11.6049 39.4167 21.5 39.4167Z" fill="black" stroke="black" stroke-width="1.5" stroke-linecap="round" stroke-linejoin="round"/>
<path id="Vector_2" d="M17.893 29.4566L14.1124 26.0846C13.7827 25.7906 13.7633 25.2744 14.0691 24.9316L16.1911 22.5524C16.4968 22.2096 16.4774 21.6934 16.1477 21.3993L13.8595 19.3584C13.5298 19.0644 13.5104 18.5482 13.8161 18.2053L17.3221 14.2745C17.6278 13.9317 18.1429 13.8922 18.4726 14.1862L20.7608 16.2272C21.0905 16.5212 21.6056 16.4817 21.9113 16.1389L24.0334 13.7597C24.3391 13.4169 24.8542 13.3774 25.1839 13.6715L28.9644 17.0434C29.2942 17.3375 29.3135 17.8537 29.0078 18.1965L26.8858 20.5757C26.58 20.9184 26.5994 21.4347 26.9291 21.7287L29.2174 23.7696C29.5471 24.0637 29.5664 24.5799 29.2607 24.9227L25.7548 28.8535C25.449 29.1964 24.934 29.2359 24.6042 28.9418L22.316 26.9009C21.9863 26.6068 21.4713 26.6463 21.1655 26.9891L19.0435 29.3683C18.7377 29.7111 18.2227 29.7506 17.893 29.4566Z" fill="white" stroke="black" stroke-width="1.5"/>
</g>
</svg>
